<?xml version="1.0" encoding="UTF-8" standalone="no"?>
<!-- Created with Inkscape (http://www.inkscape.org/) -->

<svg
   width="68.4935mm"
   height="68.450081mm"
   viewBox="0 0 68.4935 68.450081"
   version="1.1"
   id="svg1"
   inkscape:export-filename="bitmap.png"
   inkscape:export-xdpi="96"
   inkscape:export-ydpi="96"
   inkscape:version="1.4.3 (0d15f75, 2025-12-25)"
   sodipodi:docname="logo_no_text.svg"
   xmlns:inkscape="http://www.inkscape.org/namespaces/inkscape"
   xmlns:sodipodi="http://sodipodi.sourceforge.net/DTD/sodipodi-0.dtd"
   xmlns:xlink="http://www.w3.org/1999/xlink"
   xmlns="http://www.w3.org/2000/svg"
   xmlns:svg="http://www.w3.org/2000/svg">
  <sodipodi:namedview
     id="namedview1"
     pagecolor="#ffffff"
     bordercolor="#000000"
     borderopacity="0.25"
     inkscape:showpageshadow="2"
     inkscape:pageopacity="0.0"
     inkscape:pagecheckerboard="0"
     inkscape:deskcolor="#d1d1d1"
     inkscape:document-units="mm"
     showguides="true"
     inkscape:zoom="1.3772587"
     inkscape:cx="134.68784"
     inkscape:cy="197.8568"
     inkscape:window-width="1920"
     inkscape:window-height="991"
     inkscape:window-x="-9"
     inkscape:window-y="-9"
     inkscape:window-maximized="1"
     inkscape:current-layer="layer1">
    <sodipodi:guide
       position="34.246639,289.72625"
       orientation="1,0"
       id="guide1"
       inkscape:locked="false" />
    <sodipodi:guide
       position="24.098651,262.77484"
       orientation="0,-1"
       id="guide2"
       inkscape:locked="false" />
  </sodipodi:namedview>
  <defs
     id="defs1">
    <pattern
       id="EMFhbasepattern"
       patternUnits="userSpaceOnUse"
       width="6"
       height="6"
       x="0"
       y="0" />
    <pattern
       id="EMFhbasepattern-7"
       patternUnits="userSpaceOnUse"
       width="6"
       height="6"
       x="0"
       y="0" />
    <pattern
       id="EMFhbasepattern-2"
       patternUnits="userSpaceOnUse"
       width="6"
       height="6"
       x="0"
       y="0" />
  </defs>
  <g
     inkscape:label="Layer 1"
     inkscape:groupmode="layer"
     id="layer1"
     transform="translate(-35.983333,-98.954167)">
    <circle
       style="fill:#000000;stroke-width:0.264583"
       id="path2"
       cx="70.311768"
       cy="133.22736"
       r="3.3619015" />
    <path
       id="path3"
       style="opacity:1;fill:#000000;stroke-width:0.264583"
       d="m 70.215869,105.94806 a 27.087322,27.087322 0 0 0 -1.13068,0.0238 c 4.398462,6.74458 8.690583,13.5503 12.658659,20.54345 l -0.03152,0.0181 a 13.255498,13.255498 0 0 1 1.677934,5.13251 c 2.846726,-5.05184 5.54065,-10.19171 8.082194,-15.41974 A 27.087322,27.087322 0 0 0 70.215869,105.94806 Z m -4.070036,0.30747 a 27.087322,27.087322 0 0 0 -19.975008,14.30765 c 8.014979,-0.43484 16.030007,-0.74722 24.045044,-0.68729 a 13.255498,13.255498 0 0 1 5.242574,1.08107 c -2.951723,-4.98843 -6.055928,-9.88906 -9.31261,-14.70143 z m 27.032459,12.41165 c -3.628546,7.15343 -7.363461,14.24535 -11.419975,21.15168 l -0.07286,-0.0424 a 13.255498,13.255498 0 0 1 -3.629752,4.04368 c 5.76668,-0.0588 11.533033,-0.29176 17.299719,-0.69918 a 27.087322,27.087322 0 0 0 1.947685,-10.08569 27.087322,27.087322 0 0 0 -4.124813,-14.36811 z m -30.932996,3.87263 c -5.762232,0.062 -11.524562,0.29792 -17.2868,0.70796 a 27.087322,27.087322 0 0 0 -1.829862,9.78752 27.087322,27.087322 0 0 0 4.221447,14.52159 c 3.607136,-7.10782 7.320673,-14.15428 11.351762,-21.01732 l 0.01034,0.006 a 13.255498,13.255498 0 0 1 3.533117,-4.00595 z m -5.189864,12.17807 c -2.81311,4.99307 -5.476765,10.07263 -7.99176,15.23782 a 27.087322,27.087322 0 0 0 21.152197,10.16683 27.087322,27.087322 0 0 0 0.975134,-0.0176 c -4.334301,-6.65238 -8.56247,-13.3662 -12.475207,-20.26182 l 0.05168,-0.03 a 13.255498,13.255498 0 0 1 -1.71204,-5.09529 z m 7.879106,10.57144 c 2.9174,4.93548 5.98422,9.78524 9.199955,14.54847 a 27.087322,27.087322 0 0 0 19.969324,-14.0317 c -7.953139,0.42945 -15.90633,0.73591 -23.859526,0.67644 v -0.0956 a 13.255498,13.255498 0 0 1 -0.02842,0 13.255498,13.255498 0 0 1 -5.281331,-1.09761 z" />
    <g
       id="g8"
       style="display:none">
      <path
         id="rect4"
         style="opacity:0.4;fill:#ffff00;stroke-width:0.264583"
         d="m 38.421734,121.01306 c 10.598045,-0.64525 21.196089,-1.21641 31.794134,-1.13717 v 2.68944 c -10.598045,-0.18112 -21.196089,0.2264 -31.794134,1.22257 z"
         sodipodi:nodetypes="ccccc" />
      <use
         x="0"
         y="0"
         xlink:href="#rect4"
         id="use4"
         inkscape:transform-center-x="17.819732"
         inkscape:transform-center-y="8.10576"
         transform="rotate(-60,70.229972,133.17933)" />
      <use
         x="0"
         y="0"
         xlink:href="#use4"
         inkscape:transform-center-x="1.8715817"
         inkscape:transform-center-y="19.474545"
         id="use5"
         transform="rotate(-60,70.229972,133.17933)" />
      <use
         x="0"
         y="0"
         xlink:href="#use5"
         inkscape:transform-center-x="-15.911171"
         inkscape:transform-center-y="11.351122"
         id="use6"
         transform="rotate(-60,70.229972,133.17933)" />
      <use
         x="0"
         y="0"
         xlink:href="#use6"
         inkscape:transform-center-x="-17.819732"
         inkscape:transform-center-y="-8.105762"
         id="use7"
         transform="rotate(-60,70.229972,133.17933)" />
      <use
         x="0"
         y="0"
         xlink:href="#use7"
         inkscape:transform-center-x="-1.8715817"
         inkscape:transform-center-y="-19.474547"
         id="use8"
         transform="rotate(-60,70.229972,133.17933)" />
    </g>
    <g
       id="g13"
       style="display:inline" />
    <path
       id="path13"
       style="opacity:1;fill:#000000;stroke-width:0.264583"
       d="M 70.229822,98.954167 A 34.246639,34.225159 0 0 0 35.983333,133.17947 34.246639,34.225159 0 0 0 70.229822,167.40425 34.246639,34.225159 0 0 0 104.47683,133.17947 34.246639,34.225159 0 0 0 70.229822,98.954167 Z m 0,4.242113 A 29.983204,29.983204 0 0 1 100.213,133.17947 29.983204,29.983204 0 0 1 70.229822,163.16265 29.983204,29.983204 0 0 1 40.246639,133.17947 29.983204,29.983204 0 0 1 70.229822,103.19628 Z" />
  </g>
</svg>
